<?xml version="1.0" encoding="UTF-8" standalone="no"?>
<!-- Created with Inkscape (http://www.inkscape.org/) -->

<svg
   width="96"
   height="96"
   viewBox="0 0 96 96"
   version="1.1"
   id="svg1"
   xml:space="preserve"
   sodipodi:docname="floating.svg"
   inkscape:version="1.4.2 (ebf0e940d0, 2025-05-08)"
   xmlns:inkscape="http://www.inkscape.org/namespaces/inkscape"
   xmlns:sodipodi="http://sodipodi.sourceforge.net/DTD/sodipodi-0.dtd"
   xmlns="http://www.w3.org/2000/svg"
   xmlns:svg="http://www.w3.org/2000/svg"><sodipodi:namedview
     id="namedview1"
     pagecolor="#000000"
     bordercolor="#000000"
     borderopacity="0.25"
     inkscape:showpageshadow="2"
     inkscape:pageopacity="0.0"
     inkscape:pagecheckerboard="true"
     inkscape:deskcolor="#606060"
     inkscape:document-units="px"
     inkscape:zoom="9.2586794"
     inkscape:cx="51.033196"
     inkscape:cy="44.39078"
     inkscape:window-width="1920"
     inkscape:window-height="1080"
     inkscape:window-x="-27"
     inkscape:window-y="0"
     inkscape:window-maximized="0"
     inkscape:current-layer="layer1" /><defs
     id="defs1" /><g
     inkscape:label="图层 1"
     inkscape:groupmode="layer"
     id="layer1"><path
       id="rect1"
       style="fill:#ffffff;stroke:#ffffff;stroke-width:0.5;stroke-linecap:round;stroke-linejoin:round;paint-order:markers stroke fill"
       d="m 19.25,23.25 c -2.216,0 -4,1.784 -4,4 v 41.5 c 0,2.216 1.784,4 4,4 h 57.5 c 2.216,0 4,-1.784 4,-4 v -41.5 c 0,-2.216 -1.784,-4 -4,-4 z M 47,31 h 22 c 2.216,0 4,1.784 4,4 v 12 c 0,2.216 -1.784,4 -4,4 H 47 c -2.216,0 -4,-1.784 -4,-4 V 35 c 0,-2.216 1.784,-4 4,-4 z"
       sodipodi:nodetypes="ssssssssssssssssss" /></g></svg>
