<?xml version="1.0" encoding="UTF-8" standalone="no"?>
<!-- Created with Inkscape (http://www.inkscape.org/) -->

<svg
   width="96"
   height="96"
   viewBox="0 0 96 96"
   version="1.1"
   id="svg1"
   xml:space="preserve"
   inkscape:version="1.4.2 (ebf0e940d0, 2025-05-08)"
   sodipodi:docname="maximized.svg"
   xmlns:inkscape="http://www.inkscape.org/namespaces/inkscape"
   xmlns:sodipodi="http://sodipodi.sourceforge.net/DTD/sodipodi-0.dtd"
   xmlns="http://www.w3.org/2000/svg"
   xmlns:svg="http://www.w3.org/2000/svg"><sodipodi:namedview
     id="namedview1"
     pagecolor="#000000"
     bordercolor="#000000"
     borderopacity="0.25"
     inkscape:showpageshadow="2"
     inkscape:pageopacity="0.0"
     inkscape:pagecheckerboard="true"
     inkscape:deskcolor="#606060"
     inkscape:document-units="px"
     inkscape:zoom="9.2586794"
     inkscape:cx="44.606793"
     inkscape:cy="36.992317"
     inkscape:window-width="1839"
     inkscape:window-height="1051"
     inkscape:window-x="50"
     inkscape:window-y="25"
     inkscape:window-maximized="1"
     inkscape:current-layer="layer1" /><defs
     id="defs1" /><g
     inkscape:label="图层 1"
     inkscape:groupmode="layer"
     id="layer1"><path
       id="rect1"
       style="fill:#ffffff;stroke:#ffffff;stroke-width:0.5;stroke-linecap:round;stroke-linejoin:round;paint-order:markers stroke fill"
       d="m 19.25,23.25 c -2.216,0 -4,1.784 -4,4 v 41.5 c 0,2.216 1.784,4 4,4 h 57.5 c 2.216,0 4,-1.784 4,-4 v -41.5 c 0,-2.216 -1.784,-4 -4,-4 z M 27,31 h 0.002 H 43 c 2.216,0 4,1.784 4,4 0,2.215999 -1.784,4 -4,4 H 31 v 12 c 0,2.216 -1.784,4 -4,4 -2.216,0 -4,-1.784 -4,-4 V 35 c 2.23e-4,-2.215809 1.784138,-4 4,-4 z m 42,10 c 2.216,0 4,1.784001 4,4 v 16 c -2.22e-4,2.215809 -1.784138,4 -4,4 h -0.002 H 53 c -2.215999,0 -4,-1.784 -4,-4 0,-2.216 1.784001,-4 4,-4 H 65 V 45 c 0,-2.215999 1.784,-4 4,-4 z"
       sodipodi:nodetypes="sssssssssscssscssscssscscssscss" /></g></svg>
