<?xml version="1.0" encoding="UTF-8" standalone="no"?>
<!-- Created with Inkscape (http://www.inkscape.org/) -->

<svg
   width="128"
   height="128"
   viewBox="0 0 16 16"
   version="1.1"
   id="svg1"
   inkscape:version="1.4.2 (ebf0e940d0, 2025-05-08)"
   sodipodi:docname="6.svg"
   inkscape:export-filename="6.png"
   inkscape:export-xdpi="768"
   inkscape:export-ydpi="768"
   xmlns:inkscape="http://www.inkscape.org/namespaces/inkscape"
   xmlns:sodipodi="http://sodipodi.sourceforge.net/DTD/sodipodi-0.dtd"
   xmlns="http://www.w3.org/2000/svg"
   xmlns:svg="http://www.w3.org/2000/svg">
  <sodipodi:namedview
     id="namedview1"
     pagecolor="#525252"
     bordercolor="#000000"
     borderopacity="0.25"
     inkscape:showpageshadow="2"
     inkscape:pageopacity="0.0"
     inkscape:pagecheckerboard="true"
     inkscape:deskcolor="#d1d1d1"
     inkscape:document-units="px"
     inkscape:zoom="1.6367188"
     inkscape:cx="89.813842"
     inkscape:cy="6.1097851"
     inkscape:window-width="1839"
     inkscape:window-height="1051"
     inkscape:window-x="50"
     inkscape:window-y="25"
     inkscape:window-maximized="1"
     inkscape:current-layer="layer1" />
  <defs
     id="defs1" />
  <g
     inkscape:label="图层 1"
     inkscape:groupmode="layer"
     id="layer1">
    <text
       xml:space="preserve"
       style="font-style:normal;font-variant:normal;font-weight:normal;font-stretch:normal;font-size:16.0003px;font-family:'Monofur Nerd Font';-inkscape-font-specification:'Monofur Nerd Font';text-align:center;writing-mode:lr-tb;direction:ltr;text-anchor:middle;display:none;opacity:1;fill:#ffffff;fill-opacity:1;stroke:none;stroke-width:1.00002;stroke-linecap:round;stroke-linejoin:round;paint-order:markers stroke fill"
       x="8.0001535"
       y="13.000129"
       id="text1"
       transform="scale(0.99998041,1.0000196)"
       inkscape:label="text"><tspan
         sodipodi:role="line"
         x="0"
         y="0"
         id="tspan4"
         style="stroke-width:1.00002">6</tspan></text>
    <path
       d="m 11.500219,3.4999509 q 0,0.5000094 -0.500009,0.5000094 -1.3466922,0 -2.5400478,0.6200116 -1.1866889,0.6200116 -1.9600367,1.726699 0.7000131,-0.3466732 1.500028,-0.3466732 1.4466938,0 2.4733795,1.0266859 1.026686,1.0266859 1.026686,2.4733796 0,1.4466938 -1.026686,2.4733798 -1.0266857,1.026686 -2.4733795,1.026686 -1.4466937,0 -2.4733796,-1.026686 Q 4.500088,10.946757 4.500088,9.5000632 q 0,-2.6867169 1.9067024,-4.5934193 1.9067023,-1.9067023 4.5934196,-1.9067023 0.500009,0 0.500009,0.5000093 z M 10.5002,9.5000632 q 0,-1.0333526 -0.7333467,-1.7666997 -0.7333471,-0.733347 -1.7666998,-0.733347 -1.0333526,0 -1.7666997,0.733347 -0.733347,0.7333471 -0.733347,1.7666997 0,1.0333528 0.733347,1.7666998 0.7333471,0.733347 1.7666997,0.733347 1.0333527,0 1.7666998,-0.733347 Q 10.5002,10.533416 10.5002,9.5000632 Z"
       id="text2"
       style="font-size:16.0003px;font-family:'Monofur Nerd Font';-inkscape-font-specification:'Monofur Nerd Font';text-align:center;text-anchor:middle;fill:#ffffff;fill-opacity:0.6;stroke-width:1.00002;stroke-linecap:round;stroke-linejoin:round;paint-order:markers stroke fill"
       inkscape:label="path"
       transform="scale(0.99998041,1.0000196)"
       aria-label="6" />
  </g>
</svg>
