<?xml version="1.0" encoding="UTF-8" standalone="no"?>
<svg
   width="22"
   height="22"
   version="1.1"
   id="svg1"
   sodipodi:docname="notifications.svg"
   inkscape:version="1.4.2 (ebf0e940d0, 2025-05-08)"
   xmlns:inkscape="http://www.inkscape.org/namespaces/inkscape"
   xmlns:sodipodi="http://sodipodi.sourceforge.net/DTD/sodipodi-0.dtd"
   xmlns="http://www.w3.org/2000/svg"
   xmlns:svg="http://www.w3.org/2000/svg">
  <defs
     id="defs1" />
  <sodipodi:namedview
     id="namedview1"
     pagecolor="#ffffff"
     bordercolor="#000000"
     borderopacity="0.25"
     inkscape:showpageshadow="2"
     inkscape:pageopacity="0.0"
     inkscape:pagecheckerboard="0"
     inkscape:deskcolor="#d1d1d1"
     inkscape:zoom="39.5"
     inkscape:cx="11"
     inkscape:cy="11.012658"
     inkscape:window-width="1839"
     inkscape:window-height="1051"
     inkscape:window-x="50"
     inkscape:window-y="25"
     inkscape:window-maximized="1"
     inkscape:current-layer="svg1" />
  <style
     id="current-color-scheme"
     type="text/css">.ColorScheme-Text {
            color:#dedede;
        }</style>
  <path
     class="ColorScheme-Text"
     d="m11 3a1 1 0 0 0-0.994 1.1 4.988 4.988 0 0 0-4.006 4.9v4.5l-2 2v0.5h14v-0.5l-2-2v-4.5a4.987 4.987 0 0 0-4.006-4.9 1 1 0 0 0-0.994-1.1zm0 2a4 4 0 0 1 4 4v4.922l1 1.078h-10l1-1.078v-4.922a4 4 0 0 1 4-4zm-1.73 12a2 2 0 0 0 1.73 1 2 2 0 0 0 1.729-1z"
     fill="currentColor"
     id="path1"
     style="fill:#ffffff;fill-opacity:1" />
</svg>
